<svg width="24" height="25" viewBox="0 0 24 25" fill="none" xmlns="http://www.w3.org/2000/svg">
<path d="M19.5 7.67334H3C2.80109 7.67334 2.61032 7.75236 2.46967 7.89301C2.32902 8.03366 2.25 8.22443 2.25 8.42334V12.9233C2.25224 14.2002 2.52531 15.4621 3.05117 16.6256C3.57703 17.7892 4.34372 18.8279 5.30063 19.6733H3C2.80109 19.6733 2.61032 19.7524 2.46967 19.893C2.32902 20.0337 2.25 20.2244 2.25 20.4233C2.25 20.6223 2.32902 20.813 2.46967 20.9537C2.61032 21.0943 2.80109 21.1733 3 21.1733H19.5C19.6989 21.1733 19.8897 21.0943 20.0303 20.9537C20.171 20.813 20.25 20.6223 20.25 20.4233C20.25 20.2244 20.171 20.0337 20.0303 19.893C19.8897 19.7524 19.6989 19.6733 19.5 19.6733H17.1994C18.348 18.6553 19.219 17.362 19.7306 15.9149C20.6832 15.8562 21.5776 15.4365 22.2315 14.7413C22.8854 14.0461 23.2497 13.1277 23.25 12.1733V11.4233C23.25 10.4288 22.8549 9.47495 22.1516 8.77169C21.4484 8.06843 20.4946 7.67334 19.5 7.67334ZM21.75 12.1733C21.7497 12.6586 21.5925 13.1307 21.3019 13.5193C21.0113 13.9079 20.6028 14.1921 20.1375 14.3296C20.2118 13.8645 20.2494 13.3943 20.25 12.9233V9.30271C20.6886 9.45777 21.0683 9.74495 21.3369 10.1247C21.6055 10.5045 21.7499 10.9582 21.75 11.4233V12.1733ZM10.5 5.42334V2.42334C10.5 2.22443 10.579 2.03366 10.7197 1.89301C10.8603 1.75236 11.0511 1.67334 11.25 1.67334C11.4489 1.67334 11.6397 1.75236 11.7803 1.89301C11.921 2.03366 12 2.22443 12 2.42334V5.42334C12 5.62225 11.921 5.81302 11.7803 5.95367C11.6397 6.09432 11.4489 6.17334 11.25 6.17334C11.0511 6.17334 10.8603 6.09432 10.7197 5.95367C10.579 5.81302 10.5 5.62225 10.5 5.42334ZM13.5 5.42334V2.42334C13.5 2.22443 13.579 2.03366 13.7197 1.89301C13.8603 1.75236 14.0511 1.67334 14.25 1.67334C14.4489 1.67334 14.6397 1.75236 14.7803 1.89301C14.921 2.03366 15 2.22443 15 2.42334V5.42334C15 5.62225 14.921 5.81302 14.7803 5.95367C14.6397 6.09432 14.4489 6.17334 14.25 6.17334C14.0511 6.17334 13.8603 6.09432 13.7197 5.95367C13.579 5.81302 13.5 5.62225 13.5 5.42334ZM7.5 5.42334V2.42334C7.5 2.22443 7.57902 2.03366 7.71967 1.89301C7.86032 1.75236 8.05109 1.67334 8.25 1.67334C8.44891 1.67334 8.63968 1.75236 8.78033 1.89301C8.92098 2.03366 9 2.22443 9 2.42334V5.42334C9 5.62225 8.92098 5.81302 8.78033 5.95367C8.63968 6.09432 8.44891 6.17334 8.25 6.17334C8.05109 6.17334 7.86032 6.09432 7.71967 5.95367C7.57902 5.81302 7.5 5.62225 7.5 5.42334Z" fill="black"/>
</svg>
