<svg width="24" height="24" viewBox="0 0 24 24" fill="none" xmlns="http://www.w3.org/2000/svg">
<path d="M22.4893 18.5737L21.1525 7.32375C21.1091 6.95721 20.9321 6.61952 20.6554 6.37529C20.3786 6.13106 20.0215 5.99744 19.6525 6H16.4996C16.4996 4.80653 16.0255 3.66193 15.1816 2.81802C14.3377 1.97411 13.1931 1.5 11.9996 1.5C10.8062 1.5 9.66157 1.97411 8.81766 2.81802C7.97374 3.66193 7.49964 4.80653 7.49964 6H4.34308C3.97399 5.99744 3.61691 6.13106 3.34016 6.37529C3.06342 6.61952 2.88644 6.95721 2.84308 7.32375L1.5062 18.5737C1.4817 18.7837 1.50186 18.9965 1.56536 19.1981C1.62885 19.3998 1.73425 19.5857 1.87464 19.7438C2.01604 19.9025 2.18932 20.0296 2.38317 20.1168C2.57701 20.204 2.78707 20.2494 2.99964 20.25H20.9921C21.206 20.2505 21.4175 20.2056 21.6127 20.1183C21.8079 20.0311 21.9824 19.9034 22.1246 19.7438C22.2644 19.5854 22.3691 19.3993 22.4319 19.1977C22.4948 18.9961 22.5143 18.7835 22.4893 18.5737ZM11.9996 3C12.7953 3 13.5583 3.31607 14.121 3.87868C14.6836 4.44129 14.9996 5.20435 14.9996 6H8.99964C8.99964 5.20435 9.31571 4.44129 9.87832 3.87868C10.4409 3.31607 11.204 3 11.9996 3ZM2.99964 18.75L4.34308 7.5H19.6637L20.9921 18.75H2.99964Z" fill="#1A1A1A"/>
</svg>
