<svg width="24" height="25" viewBox="0 0 24 25" fill="none" xmlns="http://www.w3.org/2000/svg">
<path d="M22.5 9.65479C22.5 16.2173 12.7697 21.5292 12.3553 21.7485C12.2461 21.8073 12.124 21.838 12 21.838C11.876 21.838 11.7539 21.8073 11.6447 21.7485C11.2303 21.5292 1.5 16.2173 1.5 9.65479C1.50174 8.11375 2.11468 6.63632 3.20436 5.54665C4.29404 4.45697 5.77146 3.84402 7.3125 3.84229C9.24844 3.84229 10.9434 4.67479 12 6.08197C13.0566 4.67479 14.7516 3.84229 16.6875 3.84229C18.2285 3.84402 19.706 4.45697 20.7956 5.54665C21.8853 6.63632 22.4983 8.11375 22.5 9.65479Z" fill="black"/>
</svg>
