<svg width="25" height="24" viewBox="0 0 25 24" fill="none" xmlns="http://www.w3.org/2000/svg">
<path d="M17.2402 3.75C15.3043 3.75 13.6093 4.5825 12.5527 5.98969C11.4962 4.5825 9.80117 3.75 7.86523 3.75C6.3242 3.75174 4.84677 4.36468 3.75709 5.45436C2.66742 6.54404 2.05447 8.02146 2.05273 9.5625C2.05273 16.125 11.783 21.4369 12.1974 21.6562C12.3066 21.715 12.4287 21.7458 12.5527 21.7458C12.6768 21.7458 12.7988 21.715 12.908 21.6562C13.3224 21.4369 23.0527 16.125 23.0527 9.5625C23.051 8.02146 22.4381 6.54404 21.3484 5.45436C20.2587 4.36468 18.7813 3.75174 17.2402 3.75ZM12.5527 20.1375C10.8409 19.14 3.55273 14.5959 3.55273 9.5625C3.55422 8.41921 4.00905 7.32317 4.81748 6.51475C5.62591 5.70632 6.72195 5.25149 7.86523 5.25C9.68867 5.25 11.2196 6.22125 11.859 7.78125C11.9155 7.91881 12.0116 8.03646 12.1351 8.11926C12.2587 8.20207 12.404 8.24627 12.5527 8.24627C12.7014 8.24627 12.8468 8.20207 12.9703 8.11926C13.0939 8.03646 13.19 7.91881 13.2465 7.78125C13.8859 6.21844 15.4168 5.25 17.2402 5.25C18.3835 5.25149 19.4796 5.70632 20.288 6.51475C21.0964 7.32317 21.5512 8.41921 21.5527 9.5625C21.5527 14.5884 14.2627 19.1391 12.5527 20.1375Z" fill="black"/>
</svg>
