<svg width="24" height="24" viewBox="0 0 24 24" fill="none" xmlns="http://www.w3.org/2000/svg">
<path d="M22.4234 9.11824C22.3297 8.82998 22.1527 8.57592 21.9148 8.38807C21.6769 8.20022 21.3887 8.08698 21.0866 8.06261L15.5553 7.61636L13.4197 2.45168C13.3042 2.17026 13.1076 1.92953 12.855 1.76012C12.6023 1.5907 12.305 1.50024 12.0008 1.50024C11.6966 1.50024 11.3992 1.5907 11.1466 1.76012C10.8939 1.92953 10.6974 2.17026 10.5819 2.45168L8.44812 7.61543L2.91406 8.06261C2.61141 8.08821 2.32305 8.20255 2.0851 8.39131C1.84714 8.58006 1.67019 8.83485 1.5764 9.12373C1.4826 9.41261 1.47615 9.72275 1.55784 10.0153C1.63953 10.3078 1.80573 10.5697 2.03562 10.7682L6.25437 14.4086L4.96906 19.8517C4.89717 20.1474 4.91477 20.4578 5.01962 20.7435C5.12448 21.0292 5.31185 21.2773 5.55796 21.4563C5.80407 21.6353 6.09781 21.7371 6.40191 21.7489C6.70601 21.7606 7.00674 21.6818 7.26593 21.5223L12.0003 18.6086L16.7375 21.5223C16.9968 21.6799 17.2969 21.7572 17.6001 21.7446C17.9032 21.732 18.1958 21.6299 18.4411 21.4513C18.6864 21.2727 18.8733 21.0255 18.9784 20.7408C19.0835 20.4562 19.102 20.1468 19.0316 19.8517L17.7416 14.4076L21.9603 10.7673C22.1921 10.5691 22.3598 10.3066 22.4422 10.0131C22.5247 9.71952 22.5181 9.40808 22.4234 9.11824ZM20.9853 9.63105L16.4197 13.5686C16.3156 13.6583 16.2381 13.7749 16.1958 13.9057C16.1535 14.0365 16.1479 14.1764 16.1797 14.3101L17.5747 20.1976C17.5783 20.2057 17.5787 20.2149 17.5757 20.2233C17.5727 20.2317 17.5667 20.2386 17.5587 20.2426C17.5419 20.2557 17.5372 20.2529 17.5231 20.2426L12.3931 17.0879C12.275 17.0153 12.139 16.9768 12.0003 16.9768C11.8616 16.9768 11.7256 17.0153 11.6075 17.0879L6.47749 20.2445C6.46343 20.2529 6.45968 20.2557 6.44187 20.2445C6.43396 20.2405 6.42789 20.2335 6.42493 20.2252C6.42196 20.2168 6.42232 20.2076 6.42593 20.1995L7.82093 14.312C7.85273 14.1783 7.84715 14.0384 7.80483 13.9076C7.7625 13.7768 7.68505 13.6602 7.58093 13.5704L3.01531 9.63293C3.00406 9.62355 2.99374 9.61511 3.00312 9.58605C3.01249 9.55699 3.01999 9.56074 3.03406 9.55886L9.02656 9.07511C9.164 9.06333 9.29554 9.01386 9.40669 8.93215C9.51783 8.85044 9.6043 8.73966 9.65656 8.61199L11.9647 3.02355C11.9722 3.00761 11.975 3.00011 11.9975 3.00011C12.02 3.00011 12.0228 3.00761 12.0303 3.02355L14.3441 8.61199C14.3968 8.73971 14.4838 8.85037 14.5955 8.93176C14.7072 9.01315 14.8391 9.06211 14.9769 9.07324L20.9694 9.55699C20.9834 9.55699 20.9919 9.55699 21.0003 9.58418C21.0087 9.61137 21.0003 9.62168 20.9853 9.63105Z" fill="black"/>
</svg>
